<?xml version="1.0" encoding="UTF-8" standalone="no"?>
<!-- Created with Inkscape (http://www.inkscape.org/) -->
<svg
   xmlns:dc="http://purl.org/dc/elements/1.1/"
   xmlns:cc="http://web.resource.org/cc/"
   xmlns:rdf="http://www.w3.org/1999/02/22-rdf-syntax-ns#"
   xmlns:svg="http://www.w3.org/2000/svg"
   xmlns="http://www.w3.org/2000/svg"
   xmlns:sodipodi="http://sodipodi.sourceforge.net/DTD/sodipodi-0.dtd"
   xmlns:inkscape="http://www.inkscape.org/namespaces/inkscape"
   width="31.48"
   height="31.48"
   id="svg2756"
   sodipodi:version="0.32"
   inkscape:version="0.45.1"
   version="1.0"
   inkscape:output_extension="org.inkscape.output.svg.inkscape">
  <defs
     id="defs2758" />
  <sodipodi:namedview
     id="base"
     pagecolor="#ffffff"
     bordercolor="#666666"
     borderopacity="1.0"
     gridtolerance="10000"
     guidetolerance="10"
     objecttolerance="10"
     inkscape:pageopacity="0.0"
     inkscape:pageshadow="2"
     inkscape:zoom="22.4"
     inkscape:cx="18.491557"
     inkscape:cy="21.303375"
     inkscape:document-units="px"
     inkscape:current-layer="layer1"
     inkscape:showpageshadow="false"
     inkscape:window-width="1024"
     inkscape:window-height="699"
     inkscape:window-x="-4"
     inkscape:window-y="-4"
     width="31.48px"
     height="31.48px" />
  <metadata
     id="metadata2761">
    <rdf:RDF>
      <cc:Work
         rdf:about="">
        <dc:format>image/svg+xml</dc:format>
        <dc:type
           rdf:resource="http://purl.org/dc/dcmitype/StillImage" />
      </cc:Work>
    </rdf:RDF>
  </metadata>
  <g
     inkscape:label="Layer 1"
     inkscape:groupmode="layer"
     id="layer1"
     transform="translate(-358.56797,-470.90766)">
    <g
       transform="matrix(0.872921,0,0,0.872921,-36.465341,461.35074)"
       id="g5908_7_">
      <path
         style="fill:#ffffff"
         d="M 486.26599,30.10776 C 486.27154,38.788 479.2381,45.82929 470.55786,45.83487 C 461.87768,45.83936 454.83526,38.80701 454.83081,30.1268 C 454.83081,30.12009 454.83081,30.11447 454.83081,30.10776 C 454.82629,21.42642 461.85864,14.38513 470.53888,14.38068 C 479.22022,14.37506 486.26038,21.40854 486.26599,30.08875 C 486.26599,30.09433 486.26599,30.10104 486.26599,30.10776 z "
         rx="22.939548"
         type="arc"
         cy="264.3577"
         ry="22.939548"
         cx="296.35416"
         id="path5906_7_" />
      <g
         transform="translate(-289.6157,99.0653)"
         id="g5706_7_">
        <path
           d="M 772.94055,-81.76028 C 776.42651,-78.27432 778.16943,-74.00637 778.16943,-68.95755 C 778.16943,-63.90873 776.45666,-59.68552 773.03112,-56.29016 C 769.39635,-52.71359 765.09936,-50.92587 760.1422,-50.92587 C 755.24449,-50.92587 751.02233,-52.69903 747.47594,-56.24542 C 743.93077,-59.79068 742.15758,-64.02841 742.15758,-68.95755 C 742.15758,-73.88666 743.93077,-78.1535 747.47594,-81.76028 C 750.93175,-85.24734 755.1538,-86.98922 760.1422,-86.98922 C 765.18994,-86.98923 769.45569,-85.24734 772.94055,-81.76028 z M 749.82312,-79.41544 C 746.87634,-76.43961 745.40405,-72.95252 745.40405,-68.95307 C 745.40405,-64.95472 746.86181,-61.49787 749.77832,-58.58243 C 752.69373,-55.66593 756.16626,-54.20822 760.19482,-54.20822 C 764.22338,-54.20822 767.72497,-55.68045 770.7008,-58.6272 C 773.52673,-61.36249 774.94079,-64.80371 774.94079,-68.95307 C 774.94079,-73.07111 773.50439,-76.56602 770.63366,-79.43781 C 767.76305,-82.30848 764.28381,-83.74378 760.19482,-83.74378 C 756.10583,-83.74378 752.64905,-82.30063 749.82312,-79.41544 z M 757.57812,-70.71283 C 757.12731,-71.69394 756.45263,-72.18509 755.55432,-72.18509 C 753.9646,-72.18509 753.17029,-71.11557 753.17029,-68.97656 C 753.17029,-66.83642 753.9646,-65.76693 755.55432,-65.76693 C 756.60376,-65.76693 757.35327,-66.28823 757.80298,-67.33202 L 760.00574,-66.15847 C 758.95642,-64.29354 757.38123,-63.36053 755.28028,-63.36053 C 753.66028,-63.36053 752.36256,-63.85723 751.38819,-64.84957 C 750.41151,-65.84298 749.92603,-67.2123 749.92603,-68.95754 C 749.92603,-70.67254 750.42725,-72.03515 751.43299,-73.04314 C 752.43873,-74.05111 753.68946,-74.55565 755.1908,-74.55565 C 757.41028,-74.55565 759.0011,-73.6808 759.96106,-71.93334 L 757.57812,-70.71283 z M 767.94092,-70.71283 C 767.49011,-71.69394 766.82996,-72.18509 765.9585,-72.18509 C 764.33753,-72.18509 763.52637,-71.11557 763.52637,-68.97656 C 763.52637,-66.83642 764.33753,-65.76693 765.9585,-65.76693 C 767.00904,-65.76693 767.74512,-66.28823 768.16578,-67.33202 L 770.41773,-66.15847 C 769.36951,-64.29354 767.79664,-63.36053 765.70008,-63.36053 C 764.0824,-63.36053 762.78687,-63.85723 761.81361,-64.84957 C 760.84144,-65.84298 760.35487,-67.2123 760.35487,-68.95754 C 760.35487,-70.67254 760.84925,-72.03515 761.83717,-73.04314 C 762.82496,-74.05111 764.08241,-74.55565 765.61061,-74.55565 C 767.8268,-74.55565 769.41432,-73.6808 770.37196,-71.93334 L 767.94092,-70.71283 z "
           id="path5708_7_" />
      </g>
    </g>
  </g>
</svg>
