<?xml version="1.0" encoding="UTF-8" standalone="no"?>
<!-- Created with Inkscape (http://www.inkscape.org/) -->
<svg
   xmlns:dc="http://purl.org/dc/elements/1.1/"
   xmlns:cc="http://web.resource.org/cc/"
   xmlns:rdf="http://www.w3.org/1999/02/22-rdf-syntax-ns#"
   xmlns:svg="http://www.w3.org/2000/svg"
   xmlns="http://www.w3.org/2000/svg"
   xmlns:sodipodi="http://sodipodi.sourceforge.net/DTD/sodipodi-0.dtd"
   xmlns:inkscape="http://www.inkscape.org/namespaces/inkscape"
   width="23.337896"
   height="23.337404"
   id="svg2574"
   sodipodi:version="0.32"
   inkscape:version="0.45.1"
   version="1.0"
   inkscape:output_extension="org.inkscape.output.svg.inkscape">
  <defs
     id="defs2576" />
  <sodipodi:namedview
     id="base"
     pagecolor="#ffffff"
     bordercolor="#666666"
     borderopacity="1.0"
     gridtolerance="10000"
     guidetolerance="10"
     objecttolerance="10"
     inkscape:pageopacity="0.0"
     inkscape:pageshadow="2"
     inkscape:zoom="0.35"
     inkscape:cx="375"
     inkscape:cy="291.42857"
     inkscape:document-units="px"
     inkscape:current-layer="layer1"
     inkscape:showpageshadow="false"
     inkscape:window-width="748"
     inkscape:window-height="579"
     inkscape:window-x="110"
     inkscape:window-y="110" />
  <metadata
     id="metadata2579">
    <rdf:RDF>
      <cc:Work
         rdf:about="">
        <dc:format>image/svg+xml</dc:format>
        <dc:type
           rdf:resource="http://purl.org/dc/dcmitype/StillImage" />
      </cc:Work>
    </rdf:RDF>
  </metadata>
  <g
     inkscape:label="Layer 1"
     inkscape:groupmode="layer"
     id="layer1"
     transform="translate(-279.75962,-489.26491)">
    <g
       transform="matrix(1.146822,0,0,1.146822,478.22789,502.58592)"
       id="g6379_1_">
		
			<path
   style="fill:#ffffff"
   d="M -154.14499,-1.09436 C -154.14157,3.73257 -158.051,7.64752 -162.87836,7.65134 C -167.70488,7.65433 -171.62026,3.74448 -171.62366,-1.0816 C -171.62366,-1.0867 -171.62366,-1.09054 -171.62366,-1.09436 C -171.62706,-5.92175 -167.71765,-9.8367 -162.89115,-9.84051 C -158.06376,-9.8435 -154.14838,-5.93365 -154.145,-1.10757 C -154.14499,-1.1033 -154.14499,-1.09863 -154.14499,-1.09436 z "
   rx="29.209877"
   type="arc"
   cy="252.08646"
   ry="29.209877"
   cx="475.97119"
   id="path6381_1_" />

		<path
   d="M -162.89709,-11.26941 C -160.04528,-11.26941 -157.63372,-10.28589 -155.66412,-8.31925 C -153.69452,-6.35178 -152.70929,-3.94321 -152.70929,-1.09437 C -152.70929,1.75445 -153.67749,4.13704 -155.61304,6.05385 C -157.66779,8.07198 -160.09552,9.08022 -162.8971,9.08022 C -165.66544,9.08022 -168.0506,8.07967 -170.05428,6.07854 C -172.05794,4.07827 -173.05935,1.68672 -173.05935,-1.09437 C -173.05935,-3.87593 -172.05795,-6.28449 -170.05428,-8.31925 C -168.1017,-10.28589 -165.71568,-11.26941 -162.89709,-11.26941 z M -170.77042,-3.82825 C -171.07357,-2.96945 -171.22513,-2.05832 -171.22513,-1.09436 C -171.22513,1.16092 -170.40254,3.11054 -168.75568,4.7561 C -167.1088,6.40045 -165.14771,7.22345 -162.87156,7.22345 C -160.59623,7.22345 -158.61897,6.39276 -156.93803,4.73013 C -156.37516,4.18686 -155.91108,3.59335 -155.54747,2.95044 L -159.38365,1.24268 C -159.64339,2.53318 -160.79295,3.40473 -162.18352,3.5069 L -162.18352,5.07587 L -163.35182,5.07587 L -163.35182,3.5069 C -164.49374,3.49414 -165.59733,3.02707 -166.44035,2.28879 L -165.03958,0.87567 C -164.3643,1.51089 -163.68904,1.79617 -162.76768,1.79617 C -162.17073,1.79617 -161.5091,1.56241 -161.5091,0.78454 C -161.5091,0.50906 -161.6164,0.31747 -161.78412,0.17355 L -162.75403,-0.25901 L -163.96237,-0.79633 C -164.55929,-1.06287 -165.06511,-1.28727 -165.57347,-1.51377 L -170.77042,-3.82825 z M -162.87155,-9.43817 C -165.18092,-9.43817 -167.1335,-8.62451 -168.72928,-6.99597 C -169.16441,-6.5574 -169.54164,-6.0993 -169.86353,-5.62158 L -165.97286,-3.88955 C -165.62201,-4.96887 -164.59676,-5.62371 -163.35181,-5.69607 L -163.35181,-7.26504 L -162.18351,-7.26504 L -162.18351,-5.69607 C -161.37882,-5.65734 -160.49662,-5.43679 -159.62721,-4.76321 L -160.96412,-3.38885 C -161.45716,-3.7384 -162.07963,-3.98492 -162.70295,-3.98492 C -163.20875,-3.98492 -163.92236,-3.82992 -163.92236,-3.19513 C -163.92236,-3.09763 -163.89085,-3.01245 -163.83123,-2.93668 L -162.5301,-2.35764 L -161.64961,-1.96506 C -161.08674,-1.71344 -160.54857,-1.47501 -160.01552,-1.23743 L -154.80239,1.08343 C -154.62954,0.40093 -154.54354,-0.32544 -154.54354,-1.09437 C -154.54354,-3.41865 -155.35845,-5.38487 -156.9883,-6.99598 C -158.60193,-8.62451 -160.56302,-9.43817 -162.87155,-9.43817 z "
   id="path6383_1_" />

	</g>
  </g>
</svg>
