<?xml version="1.0" encoding="UTF-8" standalone="no"?>
<!-- Created with Inkscape (http://www.inkscape.org/) -->
<svg
   xmlns:dc="http://purl.org/dc/elements/1.1/"
   xmlns:cc="http://web.resource.org/cc/"
   xmlns:rdf="http://www.w3.org/1999/02/22-rdf-syntax-ns#"
   xmlns:svg="http://www.w3.org/2000/svg"
   xmlns="http://www.w3.org/2000/svg"
   xmlns:sodipodi="http://sodipodi.sourceforge.net/DTD/sodipodi-0.dtd"
   xmlns:inkscape="http://www.inkscape.org/namespaces/inkscape"
   width="23.33791"
   height="23.337885"
   id="svg2639"
   sodipodi:version="0.32"
   inkscape:version="0.45.1"
   version="1.0"
   inkscape:output_extension="org.inkscape.output.svg.inkscape">
  <defs
     id="defs2641" />
  <sodipodi:namedview
     id="base"
     pagecolor="#ffffff"
     bordercolor="#666666"
     borderopacity="1.0"
     gridtolerance="10000"
     guidetolerance="10"
     objecttolerance="10"
     inkscape:pageopacity="0.0"
     inkscape:pageshadow="2"
     inkscape:zoom="0.7"
     inkscape:cx="414.72573"
     inkscape:cy="-71.707275"
     inkscape:document-units="px"
     inkscape:current-layer="layer1"
     inkscape:showpageshadow="false"
     inkscape:window-width="748"
     inkscape:window-height="579"
     inkscape:window-x="154"
     inkscape:window-y="154" />
  <metadata
     id="metadata2644">
    <rdf:RDF>
      <cc:Work
         rdf:about="">
        <dc:format>image/svg+xml</dc:format>
        <dc:type
           rdf:resource="http://purl.org/dc/dcmitype/StillImage" />
      </cc:Work>
    </rdf:RDF>
  </metadata>
  <g
     inkscape:label="Layer 1"
     inkscape:groupmode="layer"
     id="layer1"
     transform="translate(-348.33105,-517.83609)">
    <g
       transform="matrix(1.146822,0,0,1.146822,61.005341,165.58783)"
       id="g6848_1_">
		
			<path
   style="fill:#ffffff"
   d="M 270.07806,317.67285 C 270.07977,322.84338 265.8919,327.03723 260.72137,327.03979 C 255.55125,327.04232 251.35743,322.85446 251.35444,317.68392 C 251.35444,317.68053 251.35444,317.67711 251.35444,317.67284 C 251.35061,312.50231 255.53976,308.30846 260.71029,308.30507 C 265.88043,308.30254 270.07424,312.49123 270.07806,317.66179 C 270.07806,317.66519 270.07806,317.66943 270.07806,317.67285 z "
   rx="22.939548"
   type="arc"
   cy="264.3577"
   ry="22.939548"
   cx="296.35416"
   id="path6096_1_" />

		<g
   transform="matrix(0.54498,0,0,0.54498,411.367,265.3489)"
   id="g6687_1_">
			<path
   style="fill:#010101"
   d="M -276.45773,77.3403 C -281.62964,77.3403 -286.00625,79.14654 -289.58908,82.75439 C -293.26569,86.4888 -295.10477,90.90759 -295.10477,96.01074 C -295.10477,101.11392 -293.26569,105.50143 -289.58908,109.17334 C -285.91406,112.84525 -281.53589,114.68121 -276.45773,114.68121 C -271.31707,114.68121 -266.86233,112.82962 -263.09201,109.12646 C -259.5404,105.61084 -257.76382,101.23892 -257.76382,96.01074 C -257.76382,90.78259 -259.57009,86.3638 -263.18576,82.75439 C -266.79984,79.14655 -271.22333,77.3403 -276.45773,77.3403 z M -276.41086,80.70126 C -272.17334,80.70126 -268.57642,82.195 -265.61545,85.18097 C -262.62482,88.13883 -261.12949,91.74664 -261.12949,96.01074 C -261.12949,100.30453 -262.59201,103.86706 -265.52329,106.69833 C -268.60611,109.7499 -272.2374,111.27337 -276.41086,111.27337 C -280.58591,111.27337 -284.18436,109.76397 -287.20627,106.74676 C -290.22815,103.72644 -291.73911,100.14828 -291.73911,96.01074 C -291.73911,91.87164 -290.21253,88.26224 -287.1594,85.18097 C -284.23123,82.19501 -280.64841,80.70126 -276.41086,80.70126 z "
   id="path6689_1_" />

			<g
   id="g6691_1_">
				<path
   style="fill:#010101"
   d="M -282.61871,92.66385 L -280.51715,92.66385 C -279.34369,92.66385 -278.84994,93.22791 -278.84994,94.2576 C -278.84994,95.05451 -279.27026,95.82169 -280.44528,95.82169 L -282.61871,95.82169 L -282.61871,92.66385 L -282.61871,92.66385 z M -285.19843,101.0686 L -282.59061,101.0686 L -282.59061,97.73574 L -280.57495,97.73574 C -277.039,97.73574 -276.27023,95.61855 -276.27023,94.24197 C -276.27023,92.19821 -277.29992,90.74975 -280.08276,90.74975 L -285.19842,90.74975 L -285.19842,101.0686 L -285.19843,101.0686 z "
   id="path6693_1_" />

				<path
   style="fill:#010101"
   d="M -275.56866,101.0686 L -271.56707,101.0686 C -268.4233,101.0686 -266.30764,99.57641 -266.30764,95.90918 C -266.30764,92.24197 -268.4233,90.74976 -271.56707,90.74976 L -275.56866,90.74976 L -275.56866,101.0686 z M -272.98895,92.92477 L -271.52487,92.92477 C -269.58267,92.92477 -268.88736,94.24197 -268.88736,95.90918 C -268.88736,97.57483 -269.58267,98.89514 -271.51083,98.89514 L -272.98895,98.89514 L -272.98895,92.92477 L -272.98895,92.92477 z "
   id="path6695_1_" />

			</g>

		</g>

	</g>
  </g>
</svg>
