<?xml version="1.0" encoding="UTF-8" standalone="no"?>
<!-- Created with Inkscape (http://www.inkscape.org/) -->
<svg
   xmlns:dc="http://purl.org/dc/elements/1.1/"
   xmlns:cc="http://web.resource.org/cc/"
   xmlns:rdf="http://www.w3.org/1999/02/22-rdf-syntax-ns#"
   xmlns:svg="http://www.w3.org/2000/svg"
   xmlns="http://www.w3.org/2000/svg"
   xmlns:sodipodi="http://sodipodi.sourceforge.net/DTD/sodipodi-0.dtd"
   xmlns:inkscape="http://www.inkscape.org/namespaces/inkscape"
   width="23.33691"
   height="23.3379"
   id="svg2747"
   sodipodi:version="0.32"
   inkscape:version="0.45.1"
   version="1.0"
   inkscape:output_extension="org.inkscape.output.svg.inkscape">
  <defs
     id="defs2749" />
  <sodipodi:namedview
     id="base"
     pagecolor="#ffffff"
     bordercolor="#666666"
     borderopacity="1.0"
     gridtolerance="10000"
     guidetolerance="10"
     objecttolerance="10"
     inkscape:pageopacity="0.0"
     inkscape:pageshadow="2"
     inkscape:zoom="0.98994949"
     inkscape:cx="257.4855"
     inkscape:cy="-41.852092"
     inkscape:document-units="px"
     inkscape:current-layer="layer1"
     showborder="true"
     inkscape:showpageshadow="false"
     inkscape:window-width="748"
     inkscape:window-height="579"
     inkscape:window-x="66"
     inkscape:window-y="66" />
  <metadata
     id="metadata2752">
    <rdf:RDF>
      <cc:Work
         rdf:about="">
        <dc:format>image/svg+xml</dc:format>
        <dc:type
           rdf:resource="http://purl.org/dc/dcmitype/StillImage" />
      </cc:Work>
    </rdf:RDF>
  </metadata>
  <g
     inkscape:label="Layer 1"
     inkscape:groupmode="layer"
     id="layer1"
     transform="translate(-368.33154,-466.40752)">
    <path
       d="M 388.28076,470.18929 C 386.02099,467.93343 383.25635,466.80452 379.98486,466.80452 C 376.75244,466.80452 374.01709,467.93343 371.77783,470.18929 C 369.47998,472.52327 368.33154,475.28499 368.33154,478.47445 C 368.33154,481.66391 369.47998,484.40609 371.77783,486.70101 C 374.07471,488.99593 376.81103,490.14242 379.98486,490.14242 C 383.19775,490.14242 385.98291,488.98617 388.33935,486.67172 C 390.5581,484.47445 391.66845,481.74203 391.66845,478.47445 C 391.66845,475.20687 390.53955,472.44515 388.28076,470.18929 z M 373.29638,471.70687 C 375.12743,469.83968 377.36572,468.90609 380.01415,468.90609 C 382.66258,468.90609 384.91161,469.83968 386.7622,471.70687 C 388.63036,473.55453 389.56493,475.81039 389.56493,478.47445 C 389.56493,478.60531 389.55223,478.72933 389.54833,478.85824 L 386.39208,478.85824 C 386.1831,478.85824 385.99462,478.98422 385.91552,479.17758 C 385.91552,479.17758 385.65575,479.80258 385.41747,480.37778 C 385.14696,478.10923 384.67528,474.14731 384.67528,474.14731 C 384.64403,473.88461 384.41844,473.68735 384.15282,473.69223 C 383.88817,473.69711 383.66942,473.90219 383.64794,474.16684 C 383.64794,474.16684 383.42626,476.85825 383.20849,479.49692 C 382.96728,476.3104 382.72607,473.1229 382.72607,473.1229 C 382.70556,472.85435 382.48193,472.64634 382.2124,472.64536 C 382.21142,472.64536 382.21142,472.64536 382.21142,472.64536 C 381.94189,472.64536 381.71728,472.85337 381.69677,473.12192 C 381.69677,473.12192 381.48779,475.80551 381.29052,478.34165 C 381.03466,474.26743 380.77685,470.1688 380.77685,470.1688 C 380.75927,469.89634 380.53369,469.68442 380.26025,469.68442 C 379.98779,469.6854 379.7622,469.89731 379.7456,470.16977 C 379.7456,470.16977 379.50732,474.09067 379.26806,478.00864 C 379.04931,474.64048 378.82665,471.21469 378.82665,471.21469 C 378.80907,470.94321 378.58349,470.73129 378.31103,470.73129 C 378.03857,470.73129 377.81396,470.94223 377.79541,471.21371 C 377.79541,471.21371 377.55322,474.89926 377.31006,478.58383 C 377.09522,475.62875 376.87451,472.60336 376.87451,472.60336 C 376.85498,472.33481 376.63232,472.12582 376.36279,472.12387 C 376.09424,472.12192 375.86865,472.32797 375.84521,472.59653 C 375.84521,472.59653 375.53369,476.21469 375.25048,479.49985 C 375.10204,478.49106 374.91943,477.24887 374.91943,477.24887 C 374.88623,477.02426 374.71045,476.8475 374.48486,476.81332 C 374.26025,476.78012 374.03955,476.8973 373.94189,477.10238 C 373.94189,477.10238 373.31298,478.4266 373.10791,478.85824 L 370.45166,478.85824 C 370.44678,478.73031 370.43408,478.60433 370.43408,478.47445 C 370.43408,475.88851 371.38818,473.6307 373.29638,471.70687 z M 386.81982,485.15414 C 384.89209,487.06039 382.62353,488.01352 380.01416,488.01352 C 377.40479,488.01352 375.15576,487.07016 373.26709,485.18344 C 371.73389,483.65121 370.8335,481.88461 370.54541,479.89145 L 373.43408,479.89145 C 373.6333,479.89145 373.81494,479.77622 373.90088,479.59653 C 373.90088,479.59653 374.05322,479.27524 374.14502,479.08188 C 374.42041,480.95688 374.87354,484.03598 374.87354,484.03598 C 374.91163,484.29477 375.13819,484.4852 375.39991,484.47739 C 375.66163,484.4686 375.87647,484.26645 375.89893,484.00473 C 375.89893,484.00473 376.11182,481.53207 376.31592,479.15903 C 376.56787,482.61997 376.8208,486.08774 376.8208,486.08774 C 376.84033,486.35825 377.06592,486.56821 377.3374,486.56723 C 377.60888,486.56625 377.83252,486.35532 377.85107,486.08481 C 377.85107,486.08481 378.08056,482.60336 378.3081,479.14926 C 378.53857,482.69516 378.77001,486.25766 378.77001,486.25766 C 378.78759,486.53012 379.01415,486.74106 379.28661,486.74106 C 379.55907,486.74008 379.78466,486.52817 379.80126,486.25571 C 379.80126,486.25571 380.03564,482.40122 380.27001,478.55844 C 380.49462,482.1268 380.72118,485.7352 380.72118,485.7352 C 380.73876,486.00571 380.96239,486.21762 381.2329,486.21958 C 381.50438,486.22153 381.73095,486.01353 381.75145,485.74302 C 381.75145,485.74302 381.97899,482.81431 382.20457,479.91392 C 382.43797,482.99693 382.67234,486.0897 382.67234,486.0897 C 382.69285,486.35825 382.9155,486.56626 383.18504,486.56724 C 383.18602,486.56724 383.18602,486.56724 383.18699,486.56724 C 383.45554,486.56724 383.67918,486.36119 383.70164,486.09263 C 383.70164,486.09263 383.98387,482.66392 384.25633,479.36118 C 384.43016,480.82016 384.62547,482.46177 384.62547,482.46177 C 384.65281,482.69419 384.83445,482.87974 385.06785,482.91197 C 385.30027,482.9442 385.52488,482.81529 385.61473,482.59752 C 385.61473,482.59752 386.52586,480.40123 386.7368,479.89147 L 389.46336,479.89147 C 389.19091,481.94906 388.31689,483.70687 386.81982,485.15414 z "
       id="path33" />
  </g>
</svg>
