<?xml version="1.0" encoding="UTF-8" standalone="no"?>
<!-- Created with Inkscape (http://www.inkscape.org/) -->
<svg
   xmlns:dc="http://purl.org/dc/elements/1.1/"
   xmlns:cc="http://web.resource.org/cc/"
   xmlns:rdf="http://www.w3.org/1999/02/22-rdf-syntax-ns#"
   xmlns:svg="http://www.w3.org/2000/svg"
   xmlns="http://www.w3.org/2000/svg"
   xmlns:sodipodi="http://sodipodi.sourceforge.net/DTD/sodipodi-0.dtd"
   xmlns:inkscape="http://www.inkscape.org/namespaces/inkscape"
   width="23.3379"
   height="23.337891"
   id="svg2734"
   sodipodi:version="0.32"
   inkscape:version="0.45.1"
   version="1.0"
   inkscape:output_extension="org.inkscape.output.svg.inkscape">
  <defs
     id="defs2736" />
  <sodipodi:namedview
     id="base"
     pagecolor="#ffffff"
     bordercolor="#666666"
     borderopacity="1.0"
     gridtolerance="10000"
     guidetolerance="10"
     objecttolerance="10"
     inkscape:pageopacity="0.0"
     inkscape:pageshadow="2"
     inkscape:zoom="0.98994949"
     inkscape:cx="257.48451"
     inkscape:cy="82.821786"
     inkscape:document-units="px"
     inkscape:current-layer="layer1"
     inkscape:showpageshadow="false"
     inkscape:window-width="748"
     inkscape:window-height="579"
     inkscape:window-x="44"
     inkscape:window-y="44" />
  <metadata
     id="metadata2739">
    <rdf:RDF>
      <cc:Work
         rdf:about="">
        <dc:format>image/svg+xml</dc:format>
        <dc:type
           rdf:resource="http://purl.org/dc/dcmitype/StillImage" />
      </cc:Work>
    </rdf:RDF>
  </metadata>
  <g
     inkscape:label="Layer 1"
     inkscape:groupmode="layer"
     id="layer1"
     transform="translate(-376.90248,-440.69324)">
    <g
       transform="translate(-128.21715,287.86075)"
       id="g193">
		
			<path
   style="fill:#ffffff"
   d="M 526.89404,164.89844 C 526.89697,159.31739 522.37646,154.79004 516.79541,154.78614 C 511.21338,154.78321 506.68799,159.30469 506.68311,164.88477 C 506.68311,164.88965 506.68311,164.89356 506.68311,164.89844 C 506.6792,170.47852 511.20166,175.00586 516.78174,175.00977 C 522.36279,175.0127 526.89014,170.49219 526.89404,164.91114 C 526.89404,164.90625 526.89404,164.90332 526.89404,164.89844 z "
   rx="27.711935"
   type="arc"
   cy="731.05353"
   ry="27.711935"
   cx="537.76129"
   id="path6428_1_" />

		<path
   id="path196"
   d="M 513.60986,172.51318 C 513.62939,172.78369 513.85498,172.99267 514.12646,172.99218 C 514.39794,172.9912 514.62158,172.78027 514.64013,172.50927 C 514.64013,172.50927 514.83544,169.53466 515.04443,166.35839 L 513.16162,166.35839 C 513.39307,169.54346 513.60986,172.51318 513.60986,172.51318 z M 517.73291,164.65137 L 518.07178,164.65137 C 517.81787,160.61426 517.56494,156.59278 517.56494,156.59278 C 517.54736,156.32032 517.32178,156.1084 517.04834,156.10889 C 516.77588,156.10889 516.55029,156.32129 516.53369,156.59375 C 516.53369,156.59375 516.42139,158.43994 516.27392,160.86426 L 517.7329,160.86426 L 517.7329,164.65137 L 517.73291,164.65137 z M 516.01221,163.76367 C 515.80811,160.625 515.61377,157.63818 515.61377,157.63818 C 515.59619,157.3667 515.37061,157.15576 515.09815,157.15576 C 514.82569,157.15576 514.60108,157.3667 514.58253,157.63818 C 514.58253,157.63818 514.35499,161.09033 514.12159,164.65136 L 516.01221,164.65136 L 516.01221,163.76367 L 516.01221,163.76367 z M 516.01221,166.3584 L 515.146,166.3584 C 515.35987,169.62549 515.55811,172.68311 515.55811,172.68311 C 515.57666,172.95508 515.80225,173.16651 516.07471,173.16602 C 516.34717,173.16504 516.57276,172.95264 516.58936,172.68067 C 516.58936,172.68067 516.65186,171.65821 516.74366,170.14649 L 516.01221,170.14649 L 516.01221,166.3584 z M 525.06885,156.61328 C 522.81006,154.35742 520.04541,153.22949 516.77393,153.22949 C 513.54151,153.22949 510.80616,154.35742 508.5669,156.61328 C 506.26807,158.94629 505.11963,161.70898 505.11963,164.89844 C 505.11963,168.0879 506.26807,170.83008 508.5669,173.125 C 510.86378,175.41992 513.6001,176.56738 516.77393,176.56738 C 519.98584,176.56738 522.771,175.40918 525.12745,173.09668 C 527.34718,170.89844 528.45753,168.16504 528.45753,164.89844 C 528.45753,161.63184 527.32764,158.86914 525.06885,156.61328 z M 521.50732,164.65137 L 521.50732,166.3584 L 521.11279,166.3584 C 521.26513,167.6416 521.41357,168.88526 521.41357,168.88526 C 521.44091,169.11866 521.62255,169.30372 521.85595,169.33594 C 522.08837,169.36768 522.31298,169.23877 522.40283,169.02198 C 522.40283,169.02198 523.31396,166.8252 523.5249,166.31544 L 526.25244,166.31544 C 525.979,168.37355 525.10498,170.13136 523.60889,171.57814 C 521.68018,173.48439 519.41162,174.43752 516.80323,174.43752 C 514.19385,174.43752 511.94385,173.49416 510.05616,171.60842 C 508.52198,170.07571 507.62159,168.3091 507.3335,166.31545 L 510.22217,166.31545 C 510.42139,166.31545 510.60303,166.2007 510.68799,166.02053 C 510.68799,166.02053 510.84131,165.69875 510.93408,165.50442 C 511.20947,167.37942 511.6626,170.46096 511.6626,170.46096 C 511.70069,170.72024 511.92725,170.90969 512.18897,170.90188 C 512.45069,170.89407 512.66553,170.69143 512.68799,170.4302 C 512.68799,170.4302 512.85694,168.46536 513.03858,166.35842 L 512.23878,166.35842 L 512.23878,164.65139 L 514.07276,164.65139 C 513.86768,161.81594 513.66358,159.02688 513.66358,159.02688 C 513.64405,158.75833 513.42139,158.54983 513.15284,158.54836 C 512.88331,158.54641 512.65772,158.75197 512.63429,159.02004 C 512.63429,159.02004 512.32277,162.6382 512.03956,165.92385 C 511.89112,164.91457 511.70851,163.6719 511.70851,163.6719 C 511.67531,163.4468 511.49953,163.27004 511.27394,163.23635 C 511.04933,163.20266 510.82863,163.31985 510.73097,163.52541 C 510.73097,163.52541 510.10109,164.85012 509.89601,165.28225 L 507.23976,165.28225 C 507.23488,165.15383 507.22218,165.02883 507.22218,164.89846 C 507.22218,162.31155 508.17726,160.05569 510.08546,158.13088 C 511.91554,156.26272 514.1548,155.3301 516.80323,155.3301 C 519.45166,155.3301 521.69971,156.26272 523.5503,158.13088 C 525.41944,159.97756 526.35401,162.2344 526.35401,164.89846 C 526.35401,165.02932 526.34131,165.15383 526.33741,165.28225 L 523.18018,165.28225 C 522.9712,165.28225 522.78272,165.40823 522.70362,165.6011 C 522.70362,165.6011 522.44385,166.22708 522.20557,166.80178 C 521.93506,164.53274 521.46338,160.57082 521.46338,160.57082 C 521.43213,160.30764 521.20654,160.11086 520.94092,160.11574 C 520.67627,160.12062 520.45752,160.32521 520.43604,160.58937 C 520.43604,160.58937 520.27979,162.4839 520.10206,164.65138 L 521.50732,164.65138 L 521.50732,164.65137 z M 519.51514,159.54785 C 519.49463,159.27881 519.271,159.0708 519.00147,159.0708 C 519.00049,159.0708 519.00049,159.0708 519.00049,159.0708 C 518.73096,159.0708 518.50635,159.27783 518.48584,159.54687 C 518.48584,159.54687 518.28369,162.14794 518.08838,164.65136 L 519.90186,164.65136 C 519.6958,161.94043 519.51514,159.54785 519.51514,159.54785 z M 517.73291,170.14648 L 517.3833,170.14648 C 517.45947,171.35937 517.50928,172.16015 517.50928,172.16015 C 517.52686,172.43115 517.74951,172.64208 518.021,172.64453 C 518.29248,172.64648 518.51905,172.43848 518.53955,172.16797 C 518.53955,172.16797 518.76709,169.25342 518.9917,166.3584 L 517.73291,166.3584 L 517.73291,170.14648 z M 519.46143,172.51465 C 519.48194,172.7832 519.70459,172.99121 519.97413,172.99219 C 519.97511,172.99219 519.97511,172.99219 519.97608,172.99219 C 520.24463,172.99219 520.46827,172.78565 520.49073,172.51807 C 520.49073,172.51807 520.74171,169.47315 520.99757,166.3584 L 518.99562,166.3584 C 519.22803,169.43555 519.46143,172.51465 519.46143,172.51465 z " />

	</g>
  </g>
</svg>
