<?xml version="1.0" encoding="UTF-8" standalone="no"?>
<!-- Generator: Adobe Illustrator 12.0.0, SVG Export Plug-In . SVG Version: 6.00 Build 51448)  -->

<svg
   xmlns:dc="http://purl.org/dc/elements/1.1/"
   xmlns:cc="http://creativecommons.org/ns#"
   xmlns:rdf="http://www.w3.org/1999/02/22-rdf-syntax-ns#"
   xmlns:svg="http://www.w3.org/2000/svg"
   xmlns="http://www.w3.org/2000/svg"
   xmlns:sodipodi="http://sodipodi.sourceforge.net/DTD/sodipodi-0.dtd"
   xmlns:inkscape="http://www.inkscape.org/namespaces/inkscape"
   version="1.1"
   width="720.002"
   height="238.598"
   viewBox="0 0 720.002 238.598"
   overflow="visible"
   enable-background="new 0 0 720.002 238.598"
   xml:space="preserve"
   id="svg2"
   inkscape:version="0.47pre4 r22446"
   sodipodi:docname="google_logo.svg"><sodipodi:namedview
   pagecolor="#ffffff"
   bordercolor="#666666"
   borderopacity="1"
   objecttolerance="10"
   gridtolerance="10"
   guidetolerance="10"
   inkscape:pageopacity="0"
   inkscape:pageshadow="2"
   inkscape:window-width="927"
   inkscape:window-height="591"
   id="namedview109"
   showgrid="false"
   inkscape:zoom="0.76110898"
   inkscape:cx="479.91878"
   inkscape:cy="119.299"
   inkscape:window-x="0"
   inkscape:window-y="29"
   inkscape:window-maximized="0"
   inkscape:current-layer="svg2" /><metadata
   id="metadata113"><rdf:RDF><cc:Work
       rdf:about=""><dc:format>image/svg+xml</dc:format><dc:type
         rdf:resource="http://purl.org/dc/dcmitype/StillImage" /><dc:title></dc:title></cc:Work></rdf:RDF></metadata><defs
   id="defs111"><inkscape:perspective
     id="perspective115"
     inkscape:persp3d-origin="360.00101 : 79.532669 : 1"
     inkscape:vp_z="720.00201 : 119.299 : 1"
     inkscape:vp_y="0 : 1000 : 0"
     inkscape:vp_x="0 : 119.299 : 1"
     sodipodi:type="inkscape:persp3d" /></defs>
<g
   display="none"
   id="Grid">
</g>
<g
   id="Layer_1">
</g>
<g
   id="Desktop">
</g>
<g
   id="Guides">
</g>
<g
   id="Page_1">
	<g
   id="Layer_1_1_">
		
			<linearGradient
   gradientTransform="matrix(0.6652 0 0 0.6708 371.3542 -281.5009)"
   y2="542.1074"
   x2="332.2358"
   y1="542.1074"
   x1="242.4595"
   gradientUnits="userSpaceOnUse"
   id="XMLID_8_">
			<stop
   id="stop11"
   style="stop-color:#000000"
   offset="0.35" />
			<stop
   id="stop13"
   style="stop-color:#000000"
   offset="0.503" />
			<stop
   id="stop15"
   style="stop-color:#000000"
   offset="0.65" />
		</linearGradient>
		<path
   id="path17"
   d="M550.94,0c10.977,0,21.309,0.004,32.281,0.004    c-4.492,2.91-6,4.117-7.93,7.172c-1.383,2.195-1.738,6.352-1.988,10.098c-1.887,43.109-0.73,86.543-1.008,129.652    c0.176,11.75,4.793,10.371,20.074,9.922c-2.305,1.953-6.039,5.816-8.938,7.473c-13.781,0-26.945-0.293-40.723-0.293    c5.195-5.363,7.855-8.82,7.5-22.227c0.273-45.055-1.512-88.285,1.234-131.672c-6.465,0.184-12.332,0.09-18.797,0.277    C538.745,7.258,544.522,2.828,550.94,0L550.94,0z"
   fill="url(#XMLID_8_-864-442-624)"
   clip-rule="evenodd"
   fill-rule="evenodd" />
		<path
   id="path19"
   d="M691.01,55.836c1.488,0,9.984,0,11.473,0l-0.77,2.113    c-0.262,0.109-0.523,0.215-0.781,0.324c0.164-0.777,0.434-1.355-0.16-1.512l-2.691,0.004c-0.148,2.574-0.254,7.293-0.25,10.68    c-0.133,1.121,1.086,1.051,2.348,1.301l-1.098,0.637c-1.867,0-3.727-0.039-5.594-0.039c0.891-0.469,1.016-1.195,0.969-3.016    c-0.055-3.031,0.055-6.926,0.215-9.59c-0.902-0.023-1.699,0.012-2.574,0.039c-0.402,0.047-0.711,0.453-0.992,1.16l-0.852,0.355    L691.01,55.836L691.01,55.836z"
   fill="#000000"
   clip-rule="evenodd"
   fill-rule="evenodd" />
		
			<radialGradient
   gradientUnits="userSpaceOnUse"
   gradientTransform="matrix(0.6875 0 0 0.6652 291.9632 -263.6867)"
   r="94.2447"
   cy="559.8066"
   cx="-89.4995"
   id="XMLID_9_">
			<stop
   id="stop22"
   style="stop-color:#000000"
   offset="0.1124" />
			<stop
   id="stop24"
   style="stop-color:#000000"
   offset="0.12" />
			<stop
   id="stop26"
   style="stop-color:#000000"
   offset="0.31" />
			<stop
   id="stop28"
   style="stop-color:#000000"
   offset="0.4772" />
			<stop
   id="stop30"
   style="stop-color:#000000"
   offset="0.5684" />
			<stop
   id="stop32"
   style="stop-color:#000000"
   offset="0.6748" />
			<stop
   id="stop34"
   style="stop-color:#000000"
   offset="0.88" />
		</radialGradient>
		<path
   id="path36"
   d="M236.346,56.355c37.484,0,57.039,24.629,58.791,53.484    c1.736,28.742-22.246,54.461-51.596,57.543c-35.295,3.699-66.115-20.332-66.115-55.371    C177.426,81.359,203.895,56.355,236.346,56.355L236.346,56.355z M271.77,113.535c2.146,21.148-5.029,40.781-24.227,45.176    c-19.643,4.492-40.467-11.613-45.668-38.98c-5.705-30.012,3.725-49.777,22.268-54.637    C246.108,59.336,268.495,81.25,271.77,113.535L271.77,113.535z"
   fill="url(#XMLID_9_-178-631-103)"
   clip-rule="evenodd"
   fill-rule="evenodd" />
		
			<radialGradient
   gradientUnits="userSpaceOnUse"
   gradientTransform="matrix(0.6794 0 0 0.6652 324.1435 -263.6867)"
   r="92.5321"
   cy="559.8027"
   cx="50.7944"
   id="XMLID_10_">
			<stop
   id="stop39"
   style="stop-color:#000000"
   offset="0.11" />
			<stop
   id="stop41"
   style="stop-color:#000000"
   offset="0.305" />
			<stop
   id="stop43"
   style="stop-color:#000000"
   offset="0.4298" />
			<stop
   id="stop45"
   style="stop-color:#000000"
   offset="0.5858" />
			<stop
   id="stop47"
   style="stop-color:#000000"
   offset="0.6794" />
			<stop
   id="stop49"
   style="stop-color:#000000"
   offset="0.89" />
		</radialGradient>
		<path
   id="path51"
   d="M363.333,56.355c37.045,0,56.373,24.629,58.104,53.484    c1.715,28.742-21.988,54.461-50.996,57.543c-34.881,3.699-65.34-20.332-65.34-55.371C305.1,81.359,331.258,56.355,363.333,56.355    L363.333,56.355z M398.338,113.535c2.125,21.148-4.969,40.781-23.941,45.176c-19.414,4.492-39.992-11.613-45.133-38.98    c-5.641-30.012,3.68-49.777,22.006-54.637C372.979,59.336,395.104,81.25,398.338,113.535L398.338,113.535z"
   fill="url(#XMLID_10_-994-971-65)"
   clip-rule="evenodd"
   fill-rule="evenodd" />
		
			<radialGradient
   gradientUnits="userSpaceOnUse"
   gradientTransform="matrix(0.6652 0 0 0.6652 404.6628 -255.9006)"
   r="115.4805"
   cy="536.8584"
   cx="397.9761"
   id="XMLID_11_">
			<stop
   id="stop54"
   style="stop-color:#000000"
   offset="0.08" />
			<stop
   id="stop56"
   style="stop-color:#000000"
   offset="0.0968" />
			<stop
   id="stop58"
   style="stop-color:#000000"
   offset="0.4748" />
			<stop
   id="stop60"
   style="stop-color:#000000"
   offset="0.5756" />
			<stop
   id="stop62"
   style="stop-color:#000000"
   offset="0.6932" />
			<stop
   id="stop64"
   style="stop-color:#000000"
   offset="0.92" />
		</radialGradient>
		<path
   id="path66"
   d="M684.073,88.641c3.609-1.5,3.895-1.762,2.563-5.574    c-7.629-21.77-36.344-33.523-60.797-23.324c-19.285,8.039-33.25,28.434-33.25,51.246c0,30.734,22.18,58.063,52.32,58.063    c13.813,0,23.633-1.906,32.383-7.457c1.875-1.738,12.438-10.191,12.539-12.004c0.023-0.418-1.484,0.898-3.781,2.164    c-6.813,3.586-17.023,4.957-25.023,5.105c-16.203,0.297-29.141-10.742-37.578-23.848c-5.43-8.434-8.938-18.078-9.813-28.434    c-1.34-15.91,2.547-34.215,20.523-38.707c11.961-2.992,23.289,3.707,27.695,15.23c1.996,5.227,0.789,7.941-4.043,9.938    l-43.246,18.063l14.746,0.941C646.87,102.762,666.518,95.922,684.073,88.641L684.073,88.641z"
   fill="url(#XMLID_11_-282-186-743)"
   clip-rule="evenodd"
   fill-rule="evenodd" />
		
			<radialGradient
   gradientUnits="userSpaceOnUse"
   gradientTransform="matrix(0.6652 0 0 0.6652 256.4202 -274.632)"
   r="139.9347"
   cy="536.7227"
   cx="-251.0381"
   id="XMLID_12_">
			<stop
   id="stop69"
   style="stop-color:#000000"
   offset="0.14" />
			<stop
   id="stop71"
   style="stop-color:#000000"
   offset="0.32" />
			<stop
   id="stop73"
   style="stop-color:#000000"
   offset="0.5648" />
			<stop
   id="stop75"
   style="stop-color:#000000"
   offset="0.6656" />
			<stop
   id="stop77"
   style="stop-color:#000000"
   offset="0.86" />
		</radialGradient>
		<path
   id="path79"
   d="M143.196,40.938l16.85-17.18    C131.444,0.078,82.385-3.027,49.879,13.406C21.606,27.703,1.049,56.098,0.042,87.805c-1.059,33.371,18.338,59.77,38.021,73.047    c32.492,21.91,88.824,17.031,122.758-0.102l-0.008-3.176l0.004-0.004v-34.973l7.9-9.254h-49.436l-18.309,10.309l35.557-1.055    c0,9.957,0,20.863,0,30.824c0,4.379,0.057,5.082-7.152,7.406c-10.145,2.668-21.598,3.188-32.063,2.316    c-35.504-2.961-62.566-31.016-68.979-66.008c-6.082-33.199,9.574-64.605,36.045-77.566c12.928-6.328,28.438-9.297,45.25-3.918    c10.539,3.375,20.109,9.449,28.449,17.828l-5.809,10.563L143.196,40.938L143.196,40.938z"
   fill="url(#XMLID_12_-939-500-547)"
   clip-rule="evenodd"
   fill-rule="evenodd" />
		
			<radialGradient
   gradientUnits="userSpaceOnUse"
   gradientTransform="matrix(0.666 0 0 0.666 353.5035 -242.8212)"
   r="88.1475"
   cy="510.457"
   cx="190.2485"
   id="XMLID_13_">
			<stop
   id="stop82"
   style="stop-color:#000000"
   offset="0.08" />
			<stop
   id="stop84"
   style="stop-color:#000000"
   offset="0.248" />
			<stop
   id="stop86"
   style="stop-color:#000000"
   offset="0.4748" />
			<stop
   id="stop88"
   style="stop-color:#000000"
   offset="0.6596" />
			<stop
   id="stop90"
   style="stop-color:#000000"
   offset="0.92" />
		</radialGradient>
		<path
   id="path92"
   d="M507.112,131.16l-29.234,10.438    c1.09-1.91,0.398-1.254-1.66-0.941c-18.895,2.855-38.363-9.48-42.918-28.121c-2.309-9.461-0.875-19.348,2.727-27.082    c7.828-16.805,25.23-26.141,44.535-26.141c20.082,0,38.676,0.004,58.363,0.164l-13.805,8.938h-15.715    c6.641,4.633,11.723,11.313,14.527,18.758c2.988,7.922,3.398,16.707,0.367,24.797C521.44,119.598,515.639,126.168,507.112,131.16    L507.112,131.16z M504.178,100.457c2.457,14.922-1.332,29.074-14.824,32.805c-13.805,3.82-29.078-6.926-33.988-26.156    c-5.387-21.09,0.184-34.484,13.191-38.527C483.963,63.789,500.424,77.68,504.178,100.457L504.178,100.457z"
   fill="url(#XMLID_13_-698-733-314)"
   clip-rule="evenodd"
   fill-rule="evenodd" />
		
			<radialGradient
   gradientUnits="userSpaceOnUse"
   gradientTransform="matrix(0.666 0 0 0.666 360.8121 -245.4305)"
   r="95.1706"
   cy="660.5957"
   cx="169.6396"
   id="XMLID_14_">
			<stop
   id="stop95"
   style="stop-color:#000000"
   offset="0.07" />
			<stop
   id="stop97"
   style="stop-color:#000000"
   offset="0.242" />
			<stop
   id="stop99"
   style="stop-color:#000000"
   offset="0.4742" />
			<stop
   id="stop101"
   style="stop-color:#000000"
   offset="0.6634" />
			<stop
   id="stop103"
   style="stop-color:#000000"
   offset="0.93" />
		</radialGradient>
		<path
   id="path105"
   d="M477.877,141.594l29.234-10.434    c-4.844,2.84-7.293,6.434-7.563,9.883c-0.789,10.07,11.516,17.391,18.633,22.715c15.563,11.656,21.641,30.773,11.344,49.246    c-9.84,17.637-33.281,25.504-58.168,25.594c-30.918-0.137-50.418-14.305-51.449-33.586c-1.328-24.922,24.242-36.781,47.344-39.484    c6.469-0.758,12.25-0.637,17.688-0.254C476.764,159.895,473.706,148.922,477.877,141.594L477.877,141.594z M492.581,171.699    c2.328,1.695,4.746,3.352,7.234,4.93c13.563,8.586,17.891,19.086,16.785,28.777c-1.328,11.688-12.543,20.902-31.742,22.066    c-20.496,1.242-48.09-6.875-42.98-33.836c2.719-14.363,21.781-21.781,37.539-22.305    C483.78,171.191,488.217,171.551,492.581,171.699L492.581,171.699z"
   fill="url(#XMLID_14_-461-500-485)"
   clip-rule="evenodd"
   fill-rule="evenodd" />
		<path
   id="path107"
   d="M702.94,55.836c0.258,0,0.496,0,0.734,0v-0.004h2.914    c0.711,0,0.758,0.344,0.996,1.008c1.012,2.809,3.316,9.676,3.34,9.637c0.953-2.594,2.402-6.457,3.523-9.129    c-0.008-0.309-0.313-0.332-0.707-0.309c-0.523,0-1.043,0-1.566,0c0.008-0.008,0.023-0.016,0.031-0.023    c-0.016,0.004-0.031,0.012-0.047,0.016c0.164-0.117,0.328-0.238,0.492-0.359c0.363-0.277,0.727-0.559,1.09-0.836    c0.02,0,0.035,0,0.055,0h0.004c1.488,0,2.695,0,4.188,0l0,0c0.32,0,0.648,0,0.969,0c-0.086,0.199-0.172,0.402-0.258,0.605    c-0.727,0.457-0.547,1.656-0.48,2.586c0.168,2.43,0.418,4.855,0.629,7.281c0.102,1.16,0.344,2.172,1.156,3.059    c-0.781,0.223-1.305,0.301-2.352,0.301c-1.688,0-2.156-1.078-2.344-2.961c-0.172-2.629-0.344-5.258-0.516-7.883    c-1.109,2.777-2.129,5.363-3.148,8.199c-0.219,0.672-0.313,0.742-0.07,1.41l-3.031,1.215l-3.863-11.012    c-0.254,2.547-0.512,5.852-0.664,8.387c-0.043,1.242,0.141,1.547,2.23,1.652l-1.215,0.707c-1.871,0-1.23-0.039-3.098-0.039    c0.887-0.609,1.148-1.199,1.227-3.016c0.188-2.797,0.492-6.828,0.84-9.492l-0.027-0.07c-0.762-0.016-1.352-0.129-2.313,0.266    L702.94,55.836L702.94,55.836z"
   fill="#000000"
   clip-rule="evenodd"
   fill-rule="evenodd" />
	<linearGradient
   gradientTransform="matrix(0.6652 0 0 0.6708 371.3542 -281.5009)"
   y2="542.1074"
   x2="332.2358"
   y1="542.1074"
   x1="242.4595"
   gradientUnits="userSpaceOnUse"
   id="XMLID_8_-864">
			<stop
   id="stop2986"
   style="stop-color:#000000"
   offset="0.35" />
			<stop
   id="stop2988"
   style="stop-color:#000000"
   offset="0.503" />
			<stop
   id="stop2990"
   style="stop-color:#000000"
   offset="0.65" />
		</linearGradient>
		<radialGradient
   gradientUnits="userSpaceOnUse"
   gradientTransform="matrix(0.6875 0 0 0.6652 291.9632 -263.6867)"
   r="94.2447"
   cy="559.8066"
   cx="-89.4995"
   id="XMLID_9_-178">
			<stop
   id="stop2993"
   style="stop-color:#000000"
   offset="0.1124" />
			<stop
   id="stop2995"
   style="stop-color:#000000"
   offset="0.12" />
			<stop
   id="stop2997"
   style="stop-color:#000000"
   offset="0.31" />
			<stop
   id="stop2999"
   style="stop-color:#000000"
   offset="0.4772" />
			<stop
   id="stop3001"
   style="stop-color:#000000"
   offset="0.5684" />
			<stop
   id="stop3003"
   style="stop-color:#000000"
   offset="0.6748" />
			<stop
   id="stop3005"
   style="stop-color:#000000"
   offset="0.88" />
		</radialGradient>
		<radialGradient
   gradientUnits="userSpaceOnUse"
   gradientTransform="matrix(0.6794 0 0 0.6652 324.1435 -263.6867)"
   r="92.5321"
   cy="559.8027"
   cx="50.7944"
   id="XMLID_10_-994">
			<stop
   id="stop3008"
   style="stop-color:#000000"
   offset="0.11" />
			<stop
   id="stop3010"
   style="stop-color:#000000"
   offset="0.305" />
			<stop
   id="stop3012"
   style="stop-color:#000000"
   offset="0.4298" />
			<stop
   id="stop3014"
   style="stop-color:#000000"
   offset="0.5858" />
			<stop
   id="stop3016"
   style="stop-color:#000000"
   offset="0.6794" />
			<stop
   id="stop3018"
   style="stop-color:#000000"
   offset="0.89" />
		</radialGradient>
		<radialGradient
   gradientUnits="userSpaceOnUse"
   gradientTransform="matrix(0.6652 0 0 0.6652 404.6628 -255.9006)"
   r="115.4805"
   cy="536.8584"
   cx="397.9761"
   id="XMLID_11_-282">
			<stop
   id="stop3021"
   style="stop-color:#000000"
   offset="0.08" />
			<stop
   id="stop3023"
   style="stop-color:#000000"
   offset="0.0968" />
			<stop
   id="stop3025"
   style="stop-color:#000000"
   offset="0.4748" />
			<stop
   id="stop3027"
   style="stop-color:#000000"
   offset="0.5756" />
			<stop
   id="stop3029"
   style="stop-color:#000000"
   offset="0.6932" />
			<stop
   id="stop3031"
   style="stop-color:#000000"
   offset="0.92" />
		</radialGradient>
		<radialGradient
   gradientUnits="userSpaceOnUse"
   gradientTransform="matrix(0.6652 0 0 0.6652 256.4202 -274.632)"
   r="139.9347"
   cy="536.7227"
   cx="-251.0381"
   id="XMLID_12_-939">
			<stop
   id="stop3034"
   style="stop-color:#000000"
   offset="0.14" />
			<stop
   id="stop3036"
   style="stop-color:#000000"
   offset="0.32" />
			<stop
   id="stop3038"
   style="stop-color:#000000"
   offset="0.5648" />
			<stop
   id="stop3040"
   style="stop-color:#000000"
   offset="0.6656" />
			<stop
   id="stop3042"
   style="stop-color:#000000"
   offset="0.86" />
		</radialGradient>
		<radialGradient
   gradientUnits="userSpaceOnUse"
   gradientTransform="matrix(0.666 0 0 0.666 353.5035 -242.8212)"
   r="88.1475"
   cy="510.457"
   cx="190.2485"
   id="XMLID_13_-698">
			<stop
   id="stop3045"
   style="stop-color:#000000"
   offset="0.08" />
			<stop
   id="stop3047"
   style="stop-color:#000000"
   offset="0.248" />
			<stop
   id="stop3049"
   style="stop-color:#000000"
   offset="0.4748" />
			<stop
   id="stop3051"
   style="stop-color:#000000"
   offset="0.6596" />
			<stop
   id="stop3053"
   style="stop-color:#000000"
   offset="0.92" />
		</radialGradient>
		<radialGradient
   gradientUnits="userSpaceOnUse"
   gradientTransform="matrix(0.666 0 0 0.666 360.8121 -245.4305)"
   r="95.1706"
   cy="660.5957"
   cx="169.6396"
   id="XMLID_14_-461">
			<stop
   id="stop3056"
   style="stop-color:#000000"
   offset="0.07" />
			<stop
   id="stop3058"
   style="stop-color:#000000"
   offset="0.242" />
			<stop
   id="stop3060"
   style="stop-color:#000000"
   offset="0.4742" />
			<stop
   id="stop3062"
   style="stop-color:#000000"
   offset="0.6634" />
			<stop
   id="stop3064"
   style="stop-color:#000000"
   offset="0.93" />
		</radialGradient>
		<linearGradient
   gradientTransform="matrix(0.6652 0 0 0.6708 371.3542 -281.5009)"
   y2="542.1074"
   x2="332.2358"
   y1="542.1074"
   x1="242.4595"
   gradientUnits="userSpaceOnUse"
   id="XMLID_8_-864-442">
			<stop
   id="stop3281"
   style="stop-color:#000000"
   offset="0.35" />
			<stop
   id="stop3283"
   style="stop-color:#000000"
   offset="0.503" />
			<stop
   id="stop3285"
   style="stop-color:#000000"
   offset="0.65" />
		</linearGradient>
		<radialGradient
   gradientUnits="userSpaceOnUse"
   gradientTransform="matrix(0.6875 0 0 0.6652 291.9632 -263.6867)"
   r="94.2447"
   cy="559.8066"
   cx="-89.4995"
   id="XMLID_9_-178-631">
			<stop
   id="stop3288"
   style="stop-color:#000000"
   offset="0.1124" />
			<stop
   id="stop3290"
   style="stop-color:#000000"
   offset="0.12" />
			<stop
   id="stop3292"
   style="stop-color:#000000"
   offset="0.31" />
			<stop
   id="stop3294"
   style="stop-color:#000000"
   offset="0.4772" />
			<stop
   id="stop3296"
   style="stop-color:#000000"
   offset="0.5684" />
			<stop
   id="stop3298"
   style="stop-color:#000000"
   offset="0.6748" />
			<stop
   id="stop3300"
   style="stop-color:#000000"
   offset="0.88" />
		</radialGradient>
		<radialGradient
   gradientUnits="userSpaceOnUse"
   gradientTransform="matrix(0.6794 0 0 0.6652 324.1435 -263.6867)"
   r="92.5321"
   cy="559.8027"
   cx="50.7944"
   id="XMLID_10_-994-971">
			<stop
   id="stop3303"
   style="stop-color:#000000"
   offset="0.11" />
			<stop
   id="stop3305"
   style="stop-color:#000000"
   offset="0.305" />
			<stop
   id="stop3307"
   style="stop-color:#000000"
   offset="0.4298" />
			<stop
   id="stop3309"
   style="stop-color:#000000"
   offset="0.5858" />
			<stop
   id="stop3311"
   style="stop-color:#000000"
   offset="0.6794" />
			<stop
   id="stop3313"
   style="stop-color:#000000"
   offset="0.89" />
		</radialGradient>
		<radialGradient
   gradientUnits="userSpaceOnUse"
   gradientTransform="matrix(0.6652 0 0 0.6652 404.6628 -255.9006)"
   r="115.4805"
   cy="536.8584"
   cx="397.9761"
   id="XMLID_11_-282-186">
			<stop
   id="stop3316"
   style="stop-color:#000000"
   offset="0.08" />
			<stop
   id="stop3318"
   style="stop-color:#000000"
   offset="0.0968" />
			<stop
   id="stop3320"
   style="stop-color:#000000"
   offset="0.4748" />
			<stop
   id="stop3322"
   style="stop-color:#000000"
   offset="0.5756" />
			<stop
   id="stop3324"
   style="stop-color:#000000"
   offset="0.6932" />
			<stop
   id="stop3326"
   style="stop-color:#000000"
   offset="0.92" />
		</radialGradient>
		<radialGradient
   gradientUnits="userSpaceOnUse"
   gradientTransform="matrix(0.6652 0 0 0.6652 256.4202 -274.632)"
   r="139.9347"
   cy="536.7227"
   cx="-251.0381"
   id="XMLID_12_-939-500">
			<stop
   id="stop3329"
   style="stop-color:#000000"
   offset="0.14" />
			<stop
   id="stop3331"
   style="stop-color:#000000"
   offset="0.32" />
			<stop
   id="stop3333"
   style="stop-color:#000000"
   offset="0.5648" />
			<stop
   id="stop3335"
   style="stop-color:#000000"
   offset="0.6656" />
			<stop
   id="stop3337"
   style="stop-color:#000000"
   offset="0.86" />
		</radialGradient>
		<radialGradient
   gradientUnits="userSpaceOnUse"
   gradientTransform="matrix(0.666 0 0 0.666 353.5035 -242.8212)"
   r="88.1475"
   cy="510.457"
   cx="190.2485"
   id="XMLID_13_-698-733">
			<stop
   id="stop3340"
   style="stop-color:#000000"
   offset="0.08" />
			<stop
   id="stop3342"
   style="stop-color:#000000"
   offset="0.248" />
			<stop
   id="stop3344"
   style="stop-color:#000000"
   offset="0.4748" />
			<stop
   id="stop3346"
   style="stop-color:#000000"
   offset="0.6596" />
			<stop
   id="stop3348"
   style="stop-color:#000000"
   offset="0.92" />
		</radialGradient>
		<radialGradient
   gradientUnits="userSpaceOnUse"
   gradientTransform="matrix(0.666 0 0 0.666 360.8121 -245.4305)"
   r="95.1706"
   cy="660.5957"
   cx="169.6396"
   id="XMLID_14_-461-500">
			<stop
   id="stop3351"
   style="stop-color:#000000"
   offset="0.07" />
			<stop
   id="stop3353"
   style="stop-color:#000000"
   offset="0.242" />
			<stop
   id="stop3355"
   style="stop-color:#000000"
   offset="0.4742" />
			<stop
   id="stop3357"
   style="stop-color:#000000"
   offset="0.6634" />
			<stop
   id="stop3359"
   style="stop-color:#000000"
   offset="0.93" />
		</radialGradient>
		<linearGradient
   gradientTransform="matrix(0.6652 0 0 0.6708 371.3542 -281.5009)"
   y2="542.1074"
   x2="332.2358"
   y1="542.1074"
   x1="242.4595"
   gradientUnits="userSpaceOnUse"
   id="XMLID_8_-864-442-624">
			<stop
   id="stop3664"
   style="stop-color:#000000"
   offset="0.35" />
			<stop
   id="stop3666"
   style="stop-color:#000000"
   offset="0.503" />
			<stop
   id="stop3668"
   style="stop-color:#000000"
   offset="0.65" />
		</linearGradient>
		<radialGradient
   gradientUnits="userSpaceOnUse"
   gradientTransform="matrix(0.6875 0 0 0.6652 291.9632 -263.6867)"
   r="94.2447"
   cy="559.8066"
   cx="-89.4995"
   id="XMLID_9_-178-631-103">
			<stop
   id="stop3671"
   style="stop-color:#000000"
   offset="0.1124" />
			<stop
   id="stop3673"
   style="stop-color:#000000"
   offset="0.12" />
			<stop
   id="stop3675"
   style="stop-color:#000000"
   offset="0.31" />
			<stop
   id="stop3677"
   style="stop-color:#000000"
   offset="0.4772" />
			<stop
   id="stop3679"
   style="stop-color:#000000"
   offset="0.5684" />
			<stop
   id="stop3681"
   style="stop-color:#000000"
   offset="0.6748" />
			<stop
   id="stop3683"
   style="stop-color:#000000"
   offset="0.88" />
		</radialGradient>
		<radialGradient
   gradientUnits="userSpaceOnUse"
   gradientTransform="matrix(0.6794 0 0 0.6652 324.1435 -263.6867)"
   r="92.5321"
   cy="559.8027"
   cx="50.7944"
   id="XMLID_10_-994-971-65">
			<stop
   id="stop3686"
   style="stop-color:#000000"
   offset="0.11" />
			<stop
   id="stop3688"
   style="stop-color:#000000"
   offset="0.305" />
			<stop
   id="stop3690"
   style="stop-color:#000000"
   offset="0.4298" />
			<stop
   id="stop3692"
   style="stop-color:#000000"
   offset="0.5858" />
			<stop
   id="stop3694"
   style="stop-color:#000000"
   offset="0.6794" />
			<stop
   id="stop3696"
   style="stop-color:#000000"
   offset="0.89" />
		</radialGradient>
		<radialGradient
   gradientUnits="userSpaceOnUse"
   gradientTransform="matrix(0.6652 0 0 0.6652 404.6628 -255.9006)"
   r="115.4805"
   cy="536.8584"
   cx="397.9761"
   id="XMLID_11_-282-186-743">
			<stop
   id="stop3699"
   style="stop-color:#000000"
   offset="0.08" />
			<stop
   id="stop3701"
   style="stop-color:#000000"
   offset="0.0968" />
			<stop
   id="stop3703"
   style="stop-color:#000000"
   offset="0.4748" />
			<stop
   id="stop3705"
   style="stop-color:#000000"
   offset="0.5756" />
			<stop
   id="stop3707"
   style="stop-color:#000000"
   offset="0.6932" />
			<stop
   id="stop3709"
   style="stop-color:#000000"
   offset="0.92" />
		</radialGradient>
		<radialGradient
   gradientUnits="userSpaceOnUse"
   gradientTransform="matrix(0.6652 0 0 0.6652 256.4202 -274.632)"
   r="139.9347"
   cy="536.7227"
   cx="-251.0381"
   id="XMLID_12_-939-500-547">
			<stop
   id="stop3712"
   style="stop-color:#000000"
   offset="0.14" />
			<stop
   id="stop3714"
   style="stop-color:#000000"
   offset="0.32" />
			<stop
   id="stop3716"
   style="stop-color:#000000"
   offset="0.5648" />
			<stop
   id="stop3718"
   style="stop-color:#000000"
   offset="0.6656" />
			<stop
   id="stop3720"
   style="stop-color:#000000"
   offset="0.86" />
		</radialGradient>
		<radialGradient
   gradientUnits="userSpaceOnUse"
   gradientTransform="matrix(0.666 0 0 0.666 353.5035 -242.8212)"
   r="88.1475"
   cy="510.457"
   cx="190.2485"
   id="XMLID_13_-698-733-314">
			<stop
   id="stop3723"
   style="stop-color:#000000"
   offset="0.08" />
			<stop
   id="stop3725"
   style="stop-color:#000000"
   offset="0.248" />
			<stop
   id="stop3727"
   style="stop-color:#000000"
   offset="0.4748" />
			<stop
   id="stop3729"
   style="stop-color:#000000"
   offset="0.6596" />
			<stop
   id="stop3731"
   style="stop-color:#000000"
   offset="0.92" />
		</radialGradient>
		<radialGradient
   gradientUnits="userSpaceOnUse"
   gradientTransform="matrix(0.666 0 0 0.666 360.8121 -245.4305)"
   r="95.1706"
   cy="660.5957"
   cx="169.6396"
   id="XMLID_14_-461-500-485">
			<stop
   id="stop3734"
   style="stop-color:#000000"
   offset="0.07" />
			<stop
   id="stop3736"
   style="stop-color:#000000"
   offset="0.242" />
			<stop
   id="stop3738"
   style="stop-color:#000000"
   offset="0.4742" />
			<stop
   id="stop3740"
   style="stop-color:#000000"
   offset="0.6634" />
			<stop
   id="stop3742"
   style="stop-color:#000000"
   offset="0.93" />
		</radialGradient>
		</g>
</g>
</svg>